<svg xmlns="http://www.w3.org/2000/svg" width="2560" height="1440" viewBox="0 0 2560 1440" fill="none">
  <defs>
    <linearGradient id="g0" x1="320" y1="120" x2="2360" y2="1320" gradientUnits="userSpaceOnUse">
      <stop stop-color="#111926"/>
      <stop offset="0.54" stop-color="#0d141f"/>
      <stop offset="1" stop-color="#0a1119"/>
    </linearGradient>
    <radialGradient id="g1" cx="0" cy="0" r="1" gradientUnits="userSpaceOnUse" gradientTransform="translate(520 260) rotate(18) scale(940 660)">
      <stop stop-color="#1f2e45" stop-opacity="0.72"/>
      <stop offset="1" stop-color="#1f2e45" stop-opacity="0"/>
    </radialGradient>
    <radialGradient id="g2" cx="0" cy="0" r="1" gradientUnits="userSpaceOnUse" gradientTransform="translate(1980 220) rotate(-16) scale(780 560)">
      <stop stop-color="#351318" stop-opacity="0.6"/>
      <stop offset="1" stop-color="#351318" stop-opacity="0"/>
    </radialGradient>
  </defs>
  <rect width="2560" height="1440" fill="url(#g0)"/>
  <rect width="2560" height="1440" fill="url(#g1)"/>
  <rect width="2560" height="1440" fill="url(#g2)"/>
  <g opacity="0.22" stroke="#7da3ca" stroke-width="2">
    <path d="M140 1170C520 920 840 840 1200 870C1620 906 1900 980 2420 1250"/>
    <path d="M80 1330C540 1110 930 1024 1330 1045C1730 1066 2100 1140 2480 1360"/>
  </g>
  <g opacity="0.14" stroke="#bf3f4a" stroke-width="2">
    <path d="M150 910L620 760L980 770L1460 980L1830 1010L2280 900"/>
    <path d="M220 960L660 842L1120 876L1550 1060L2050 1080L2360 1010"/>
  </g>
</svg>
